<svg width="24" height="24" viewBox="0 0 24 24" fill="none" xmlns="http://www.w3.org/2000/svg">
<g clip-path="url(#clip0_2443_712)">
<path fill-rule="evenodd" clip-rule="evenodd" d="M9.50211 6.73355C10.8286 5.70905 12.5105 5.0139 14.358 5.28429L14.1799 6.50133C12.7615 6.29374 11.4076 6.81598 10.2539 7.70702C9.09778 8.59997 8.19699 9.8248 7.71442 10.895C7.1859 12.0671 6.71508 12.8401 6.19369 13.3208C5.62971 13.8408 5.05132 13.98 4.44744 14.0041C3.45854 14.0438 2.73107 14.7349 2.4083 15.7855L10.2111 19.3039L9.70547 20.4252L1.43905 16.6977C1.18179 16.5817 1.03649 16.3055 1.08664 16.0278C1.38239 14.3899 2.48626 12.8517 4.39822 12.7751C4.80736 12.7587 5.07259 12.6815 5.35991 12.4165C5.68981 12.1123 6.07795 11.5319 6.59314 10.3894C7.15427 9.14499 8.17809 7.75614 9.50211 6.73355Z" fill="white"/>
<path fill-rule="evenodd" clip-rule="evenodd" d="M19.3254 11.1631C19.215 9.49072 18.6225 7.77 17.1967 6.56434L16.4025 7.50357C17.4971 8.42918 18.0021 9.7896 18.0981 11.2442C18.1943 12.7018 17.8727 14.1878 17.3901 15.258C16.8616 16.4301 16.594 17.2947 16.5789 18.0038C16.5626 18.7707 16.8412 19.2963 17.2229 19.7649C17.8479 20.5323 17.8116 21.535 17.2379 22.4725L9.43509 18.9541L8.92948 20.0754L17.1959 23.8029C17.4532 23.9189 17.7564 23.8449 17.9313 23.6235C18.963 22.3174 19.385 20.4718 18.1766 18.9881C17.918 18.6707 17.8003 18.4207 17.8086 18.03C17.8182 17.5813 17.9962 16.9062 18.5114 15.7636C19.0725 14.5192 19.4356 12.8324 19.3254 11.1631Z" fill="white"/>
<path fill-rule="evenodd" clip-rule="evenodd" d="M10.4394 1.39386C11.039 -0.193408 13.1522 -0.498345 14.1761 0.854639L15.8861 3.11414L14.9053 3.8564L13.1953 1.59689C12.7554 1.01566 11.8476 1.14665 11.59 1.82854L10.8989 3.65792C10.6203 4.39538 11.1443 5.18952 11.9319 5.2235L14.3149 5.3263L14.2619 6.55516L11.8789 6.45236C10.2544 6.38228 9.17368 4.7443 9.7483 3.22324L10.4394 1.39386Z" fill="white"/>
<path fill-rule="evenodd" clip-rule="evenodd" d="M22.6998 6.92242C23.4924 5.42217 22.3219 3.63657 20.63 3.76494L17.8045 3.97932L17.8976 5.20579L20.7231 4.99141C21.4499 4.93627 21.9527 5.70335 21.6122 6.34786L20.6987 8.07695C20.3305 8.77398 19.3884 8.90705 18.8415 8.33927L17.1868 6.62137L16.3009 7.47467L17.9556 9.19258C19.0836 10.3636 21.0268 10.0892 21.7863 8.65152L22.6998 6.92242Z" fill="white"/>
<path fill-rule="evenodd" clip-rule="evenodd" d="M14.8348 3.233C14.9744 2.92337 15.3386 2.78555 15.6482 2.92517L18.1037 4.03239C18.4133 4.17201 18.5511 4.5362 18.4115 4.84583L17.3043 7.3013C17.1647 7.61093 16.8005 7.74875 16.4908 7.60913L14.0354 6.50191C13.7257 6.36229 13.5879 5.9981 13.7275 5.68847L14.8348 3.233ZM15.7032 4.29925L15.1016 5.63344L16.4358 6.23505L17.0374 4.90086L15.7032 4.29925Z" fill="white"/>
<path fill-rule="evenodd" clip-rule="evenodd" d="M8.74533 19.6921L8.49253 20.2528C8.11749 21.0845 8.4877 22.0628 9.31942 22.4378C10.1511 22.8128 11.1294 22.4426 11.5045 21.6109L11.7573 21.0503L12.8785 21.5559L12.6257 22.1165C11.9715 23.5675 10.2648 24.2134 8.81381 23.5591C7.36283 22.9048 6.71697 21.1981 7.37125 19.7472L7.62405 19.1865L8.74533 19.6921Z" fill="white"/>
<path fill-rule="evenodd" clip-rule="evenodd" d="M11.1319 10.1991L14.721 6.3105L13.8172 5.47626L9.92741 9.69061C9.74786 9.88514 9.71294 10.1727 9.8407 10.4046L10.9349 12.39C11.0361 12.5737 11.2239 12.6931 11.4332 12.7069C11.6425 12.7206 11.8444 12.6267 11.9687 12.4579L15.8179 7.23049L14.8275 6.50117L11.5482 10.9545L11.1319 10.1991Z" fill="white"/>
<path fill-rule="evenodd" clip-rule="evenodd" d="M15.6081 12.2177L16.1463 6.95334L17.3699 7.07842L16.7867 12.7838C16.7598 13.0471 16.5674 13.2637 16.309 13.3214L14.0966 13.8159C13.8919 13.8616 13.6781 13.7999 13.5292 13.6522C13.3804 13.5044 13.3171 13.291 13.3613 13.086L14.7306 6.74036L15.9329 6.9998L14.7664 12.4059L15.6081 12.2177Z" fill="white"/>
</g>
<defs>
<clipPath id="clip0_2443_712">
<rect width="24" height="24" fill="white"/>
</clipPath>
</defs>
</svg>
