<svg width="24" height="24" viewBox="0 0 24 24" fill="none" xmlns="http://www.w3.org/2000/svg">
<path d="M21.4141 17.2734H17.8217C18.9613 15.7603 19.5781 13.9277 19.5781 12C19.5781 7.14258 15.6472 3.21094 10.7891 3.21094C5.9316 3.21094 2 7.14191 2 12C2 16.8575 5.93098 20.7891 10.7891 20.7891H21.4141C21.7377 20.7891 22 20.5267 22 20.2031V17.8594C22 17.5358 21.7377 17.2734 21.4141 17.2734ZM3.17188 12C3.17188 7.79988 6.58895 4.38281 10.7891 4.38281C14.9892 4.38281 18.4062 7.79988 18.4062 12C18.4062 16.2001 14.9892 19.6172 10.7891 19.6172C6.58895 19.6172 3.17188 16.2001 3.17188 12ZM20.8281 19.6172H15.1802C15.7447 19.2905 16.2756 18.8986 16.7637 18.4453H20.8281V19.6172Z" fill="white"/>
<path d="M16.4266 13.7009L13.1791 12.3559C12.8802 12.2322 12.5376 12.3739 12.4136 12.6727C12.2363 13.1004 11.8893 13.4473 11.4617 13.6247C11.1629 13.7486 11.0211 14.0912 11.1448 14.3901L12.4899 17.6376C12.5494 17.7813 12.6636 17.8954 12.8073 17.9549C12.9489 18.0133 13.1103 18.0151 13.2562 17.9544C14.8215 17.3036 16.0925 16.0326 16.7434 14.4672C16.803 14.3236 16.8032 14.1621 16.7438 14.0184C16.6845 13.8746 16.5703 13.7604 16.4266 13.7009ZM13.3354 16.6163L12.4287 14.4272C12.738 14.2172 13.0063 13.9489 13.2163 13.6397L15.4054 14.5463C14.9241 15.4124 14.2014 16.1351 13.3354 16.6163Z" fill="white"/>
<path d="M10.1163 13.6247C9.68871 13.4473 9.34175 13.1004 9.16445 12.6728C9.0405 12.374 8.69789 12.2321 8.39898 12.3559L5.15152 13.701C5.00781 13.7605 4.89367 13.8747 4.83426 14.0184C4.77484 14.1622 4.77496 14.3236 4.83469 14.4673C5.48551 16.0326 6.75656 17.3036 8.32187 17.9544C8.46441 18.0137 8.62582 18.0148 8.7707 17.9549C8.91445 17.8955 9.02867 17.7813 9.08816 17.6376L10.4332 14.3901C10.557 14.0912 10.4152 13.7486 10.1163 13.6247ZM8.24277 16.6163C7.37672 16.1351 6.65406 15.4124 6.17281 14.5463L8.36179 13.6397C8.57175 13.949 8.84011 14.2173 9.14937 14.4273L8.24277 16.6163Z" fill="white"/>
<path d="M5.15154 10.2991L8.399 11.6441C8.69916 11.7684 9.04104 11.6248 9.16447 11.3273C9.34182 10.8996 9.68873 10.5527 10.1163 10.3754C10.4152 10.2514 10.557 9.90881 10.4332 9.60991L9.08818 6.36245C9.02869 6.21874 8.91447 6.10459 8.77072 6.04518C8.62701 5.98577 8.46553 5.98592 8.32189 6.04561C6.75654 6.69643 5.48552 7.96749 4.8347 9.5328C4.77498 9.67643 4.77482 9.83792 4.83427 9.98163C4.89373 10.1253 5.00787 10.2396 5.15154 10.2991ZM8.24279 7.38374L9.14939 9.57272C8.84014 9.78268 8.57178 10.051 8.36182 10.3603L6.17283 9.4537C6.65408 8.58764 7.37678 7.86495 8.24279 7.38374Z" fill="white"/>
<path d="M10.7891 12.5859C11.1127 12.5859 11.375 12.3236 11.375 12C11.375 11.6764 11.1127 11.4141 10.7891 11.4141C10.4655 11.4141 10.2031 11.6764 10.2031 12C10.2031 12.3236 10.4655 12.5859 10.7891 12.5859Z" fill="white"/>
<path d="M11.4618 10.3753C11.8894 10.5527 12.2364 10.8996 12.4137 11.3273C12.5373 11.6251 12.8794 11.7683 13.1792 11.6441L16.4267 10.2991C16.5704 10.2396 16.6846 10.1254 16.744 9.98163C16.8034 9.83788 16.8032 9.67643 16.7435 9.5328C16.0927 7.96749 14.8216 6.69643 13.2563 6.04561C13.1127 5.98592 12.9512 5.98577 12.8075 6.04518C12.6637 6.10459 12.5495 6.21874 12.49 6.36245L11.145 9.60995C11.0212 9.90878 11.163 10.2514 11.4618 10.3753ZM13.3354 7.38374C14.2015 7.86495 14.9242 8.58764 15.4054 9.4537L13.2164 10.3603C13.0064 10.051 12.738 9.78272 12.4288 9.57272L13.3354 7.38374Z" fill="white"/>
</svg>
