<svg width="24" height="24" viewBox="0 0 24 24" fill="none" xmlns="http://www.w3.org/2000/svg">
<path d="M8.4777 14.0366C8.52242 14.3347 8.62676 14.5136 8.79072 14.603C8.93978 14.6924 9.2379 14.7372 9.67016 14.7372H14.5145C14.8574 14.7372 15.0959 14.6924 15.2151 14.5881C15.3343 14.4838 15.4089 14.29 15.4089 13.9919V13.6937C15.4089 13.4105 15.3343 13.2168 15.2151 13.1124C15.0959 13.0081 14.8574 12.9485 14.5145 12.9485H8.96959C8.40317 12.9485 7.9411 12.9037 7.58336 12.7845C7.22562 12.6802 6.92751 12.5013 6.68901 12.233C6.45052 12.0094 6.28656 11.7262 6.16731 11.3834C6.04807 11.0405 5.98844 10.6679 5.98844 10.2654V9.6692C5.98844 9.28165 6.04807 8.90901 6.16731 8.56617C6.28656 8.22334 6.45052 7.94013 6.68901 7.70164C6.92751 7.44824 7.22562 7.26937 7.58336 7.15013C7.9411 7.04579 8.40317 6.98617 8.96959 6.98617H14.9319C15.4834 6.98617 15.9306 7.04579 16.2883 7.15013C16.6461 7.26937 16.9442 7.44824 17.2125 7.68674C17.4361 7.91032 17.6 8.16372 17.7044 8.43202C17.7938 8.71523 17.8683 9.10278 17.913 9.57976L15.4238 9.87788C15.3642 9.59467 15.2598 9.4009 15.1108 9.31146C14.9468 9.22203 14.6487 9.17731 14.2313 9.17731H9.38695C9.02922 9.17731 8.79072 9.23693 8.67148 9.34127C8.55223 9.44561 8.49261 9.63939 8.49261 9.9226V10.2207C8.49261 10.5188 8.55223 10.7126 8.67148 10.8169C8.79072 10.9213 9.02922 10.966 9.38695 10.966H14.9319C15.4983 10.966 15.9455 11.0256 16.3032 11.13C16.661 11.2492 16.9591 11.4281 17.2125 11.6815C17.4361 11.92 17.6149 12.2032 17.7342 12.546C17.8534 12.8888 17.913 13.2615 17.913 13.649V14.2453C17.913 14.6477 17.8534 15.0204 17.7342 15.3632C17.6149 15.706 17.4361 15.9892 17.2125 16.2128C16.9591 16.4811 16.661 16.66 16.3032 16.7643C15.9455 16.8836 15.4983 16.9283 14.9319 16.9283H8.96959C8.40317 16.9283 7.956 16.8836 7.59826 16.7643C7.24053 16.66 6.94241 16.4811 6.68901 16.2277C6.45052 16.019 6.28656 15.7656 6.19712 15.4824C6.09278 15.2141 6.01826 14.8266 5.98844 14.3347L8.4777 14.0366Z" fill="#E1E5EA"/>
<path fill-rule="evenodd" clip-rule="evenodd" d="M18 3H6C4.34315 3 3 4.34315 3 6V18C3 19.6569 4.34315 21 6 21H18C19.6569 21 21 19.6569 21 18V6C21 4.34315 19.6569 3 18 3ZM6 2C3.79086 2 2 3.79086 2 6V18C2 20.2091 3.79086 22 6 22H18C20.2091 22 22 20.2091 22 18V6C22 3.79086 20.2091 2 18 2H6Z" fill="#E1E5EA"/>
</svg>
