<svg width="24" height="24" viewBox="0 0 24 24" fill="none" xmlns="http://www.w3.org/2000/svg">
<path d="M18.3636 20.9977C18.2201 20.9969 18.0811 20.9452 17.9691 20.8511L12 15.8516L6.03728 20.8511C5.94376 20.9305 5.83063 20.9806 5.71104 20.9954C5.59145 21.0102 5.4703 20.9891 5.36168 20.9347C5.25305 20.8803 5.1614 20.7946 5.09738 20.6878C5.03336 20.581 4.99959 20.4573 5 20.3311V3.66659C5 3.4898 5.06705 3.32025 5.18639 3.19524C5.30573 3.07023 5.46759 3 5.63637 3H18.3636C18.5324 3 18.6943 3.07023 18.8136 3.19524C18.933 3.32025 19 3.4898 19 3.66659V20.3311C18.9997 20.4568 18.9654 20.5798 18.9013 20.6859C18.8371 20.7921 18.7456 20.877 18.6373 20.9311C18.5527 20.9765 18.4587 20.9994 18.3636 20.9977ZM12 14.3318C12.1457 14.3312 12.2872 14.3829 12.4009 14.4785L17.7273 18.9446V4.33318H6.27273V18.9446L11.6055 14.4785C11.7174 14.3844 11.8565 14.3327 12 14.3318Z" fill="#29333D"/>
</svg>
