<svg width="24" height="24" viewBox="0 0 24 24" fill="none" xmlns="http://www.w3.org/2000/svg">
<path fill-rule="evenodd" clip-rule="evenodd" d="M1.65662 7.21123C1.65662 4.89164 3.53702 3.01123 5.85662 3.01123H16.7734C19.093 3.01123 20.9734 4.89163 20.9734 7.21123V12.7996C20.9734 15.1192 19.093 16.9996 16.7734 16.9996H5.85662C3.53702 16.9996 1.65662 15.1192 1.65662 12.7996V7.21123ZM5.85662 4.21123C4.19976 4.21123 2.85662 5.55438 2.85662 7.21123V12.7996C2.85662 14.4564 4.19976 15.7996 5.85662 15.7996H16.7734C18.4303 15.7996 19.7734 14.4564 19.7734 12.7996V7.21123C19.7734 5.55438 18.4303 4.21123 16.7734 4.21123H5.85662Z" fill="white"/>
<path fill-rule="evenodd" clip-rule="evenodd" d="M22.1 16.4001V10.4C22.1 10.0687 22.3686 9.80005 22.7 9.80005C23.0314 9.80005 23.3 10.0687 23.3 10.4V16.4001C23.3 18.7196 21.4196 20.6 19.1 20.6H10.1C9.76863 20.6 9.5 20.3314 9.5 20C9.5 19.6687 9.76863 19.4 10.1 19.4H19.1C20.7569 19.4 22.1 18.0569 22.1 16.4001Z" fill="white"/>
<path fill-rule="evenodd" clip-rule="evenodd" d="M9.34009 5.35927C9.54797 5.25936 9.79472 5.28745 9.97482 5.43153L14.9748 9.43153C15.1171 9.5454 15.2 9.71778 15.2 9.90005C15.2 10.0823 15.1171 10.2547 14.9748 10.3686L12.4748 12.3686L9.97482 14.3686C9.79472 14.5127 9.54797 14.5407 9.34009 14.4408C9.13221 14.3409 9 14.1307 9 13.9001V5.90005C9 5.66941 9.13221 5.45918 9.34009 5.35927ZM10.2 12.6517L13.6395 9.90005L10.2 7.14843V12.6517Z" fill="white"/>
</svg>
