<svg width="30" height="30" viewBox="0 0 30 30" fill="none" xmlns="http://www.w3.org/2000/svg">
<path fill-rule="evenodd" clip-rule="evenodd" d="M19 2.5H11C9.067 2.5 7.5 4.067 7.5 6V18C7.5 19.933 9.067 21.5 11 21.5H19C20.933 21.5 22.5 19.933 22.5 18V6C22.5 4.067 20.933 2.5 19 2.5ZM11 1C8.23858 1 6 3.23858 6 6V18C6 20.7614 8.23858 23 11 23H19C21.7614 23 24 20.7614 24 18V6C24 3.23858 21.7614 1 19 1H11ZM9 26.75C8.30964 26.75 7.75 27.3096 7.75 28C7.75 28.4142 7.41421 28.75 7 28.75C6.58579 28.75 6.25 28.4142 6.25 28C6.25 26.4812 7.48122 25.25 9 25.25H21C22.5188 25.25 23.75 26.4812 23.75 28C23.75 28.4142 23.4142 28.75 23 28.75C22.5858 28.75 22.25 28.4142 22.25 28C22.25 27.3096 21.6904 26.75 21 26.75H9ZM13.0734 9.38427C13.097 9.20915 13.2626 9.14179 13.3805 9.19508C14.2231 9.5761 15.3095 10.1077 16.084 10.624C16.8862 11.1588 17.7022 11.8551 18.2689 12.3694C18.3499 12.4429 18.3499 12.5571 18.2689 12.6306C17.7022 13.1449 16.8862 13.8412 16.084 14.376C15.2626 14.9235 14.0515 15.3258 13.198 15.5586C13.1488 15.572 13.1108 15.5623 13.0851 15.5465C13.0607 15.5315 13.0406 15.5073 13.033 15.4659C12.8445 14.4393 12.75 13.2239 12.75 12.5C12.75 11.8453 12.9117 10.5883 13.0734 9.38427ZM13.9985 7.82831C12.9224 7.34172 11.7377 8.06097 11.5868 9.18456C11.4315 10.3405 11.25 11.7197 11.25 12.5C11.25 13.3132 11.3524 14.6193 11.5577 15.7368C11.7337 16.6956 12.6807 17.2545 13.5927 17.0058C14.4687 16.7668 15.8805 16.3144 16.916 15.624C17.8097 15.0282 18.6897 14.2743 19.2769 13.7415C20.0139 13.0727 20.0139 11.9273 19.2769 11.2585C18.6897 10.7257 17.8097 9.97176 16.916 9.37596C16.0338 8.78783 14.8535 8.21493 13.9985 7.82831Z" fill="white"/>
</svg>
