<svg width="24" height="24" viewBox="0 0 24 24" fill="none" xmlns="http://www.w3.org/2000/svg">
<path fill-rule="evenodd" clip-rule="evenodd" d="M1.20005 7.00003C1.20005 4.68043 3.08045 2.80003 5.40005 2.80003H18.6001C20.9197 2.80003 22.8001 4.68043 22.8001 7.00003V14.2C22.8001 16.5196 20.9196 18.4 18.6 18.4H5.40004C3.08045 18.4 1.20005 16.5196 1.20005 14.2V7.00003ZM5.40005 4.00003C3.74319 4.00003 2.40005 5.34317 2.40005 7.00003V14.2C2.40005 15.8569 3.74319 17.2 5.40004 17.2H18.6C20.2569 17.2 21.6 15.8569 21.6 14.2V7.00003C21.6 5.34317 20.2569 4.00003 18.6001 4.00003H5.40005Z" fill="#E1E5EA"/>
<path d="M10.5 6.5V14.5L15.5 10.5L10.5 6.5Z" stroke="#E1E5EA" stroke-width="1.2" stroke-linecap="round" stroke-linejoin="round"/>
<path fill-rule="evenodd" clip-rule="evenodd" d="M6.12222 20.3778C5.77858 20.3778 5.5 20.6564 5.5 21C5.5 21.3436 5.77858 21.6222 6.12222 21.6222H18.1222C18.4659 21.6222 18.7444 21.3436 18.7444 21C18.7444 20.6564 18.4659 20.3778 18.1222 20.3778H6.12222Z" fill="#E1E5EA"/>
</svg>
