<svg width="24" height="24" viewBox="0 0 24 24" fill="none" xmlns="http://www.w3.org/2000/svg">
<path fill-rule="evenodd" clip-rule="evenodd" d="M21.442 2.55806C21.3118 2.42786 21.1308 2.3617 20.9473 2.37723L20.9441 2.3775L20.9364 2.37817L20.9078 2.38072C20.883 2.38297 20.8469 2.38632 20.8006 2.39082C20.7081 2.39981 20.5748 2.41341 20.4093 2.43201C20.0786 2.4692 19.6182 2.52654 19.0983 2.60735C18.0717 2.7669 16.7638 3.0251 15.7698 3.41895C14.2781 4.00999 12.8541 5.15674 11.6389 6.375H6C5.83424 6.375 5.67527 6.44085 5.55806 6.55806L2.55806 9.55806C2.44085 9.67527 2.375 9.83424 2.375 10V11C2.375 11.2979 2.58529 11.5544 2.87743 11.6129L7.69188 12.5758L11.4243 16.3081L12.3871 21.1225C12.4456 21.4147 12.7021 21.625 13 21.625H14C14.1658 21.625 14.3247 21.5591 14.4419 21.4419L17.4419 18.4419C17.5592 18.3247 17.625 18.1657 17.625 18V12.3611C18.8433 11.1459 19.99 9.72192 20.5811 8.23023C20.9749 7.23623 21.2331 5.92836 21.3927 4.90176C21.4735 4.38186 21.5308 3.92144 21.568 3.59075C21.5866 3.42526 21.6002 3.29189 21.6092 3.19937C21.6137 3.1531 21.617 3.11702 21.6193 3.09222L21.6218 3.06361L21.6227 3.05373L21.6228 3.05271C21.6383 2.86924 21.5722 2.68826 21.442 2.55806ZM7.7026 11.3031C7.72321 11.2715 7.74511 11.238 7.76826 11.2027C7.96101 10.9093 8.24117 10.4948 8.5931 10.0067C9.08946 9.31837 9.73197 8.47904 10.4764 7.625H6.25888L3.625 10.2589V10.4876L7.7026 11.3031ZM13.5124 20.375L12.6969 16.2974L12.7973 16.2318C13.0907 16.039 13.5053 15.7588 13.9933 15.4069C14.6816 14.9106 15.521 14.2681 16.375 13.5236V17.7411L13.7411 20.375H13.5124ZM16.5591 11.6566L16.5686 11.6474C17.8088 10.4379 18.8946 9.09317 19.419 7.76977C19.7586 6.91251 20.0004 5.72038 20.1575 4.70979C20.2162 4.33228 20.262 3.98697 20.2963 3.7037C20.013 3.738 19.6677 3.78384 19.2902 3.84252C18.2796 3.99958 17.0875 4.24138 16.2302 4.58105C14.9051 5.10609 13.5586 6.19405 12.348 7.43623C11.2432 8.56973 10.288 9.79339 9.60699 10.7378C9.2672 11.209 8.99735 11.6084 8.81301 11.889L8.79712 11.9132L12.0868 15.2029L12.111 15.187C12.3916 15.0027 12.791 14.7328 13.2622 14.393C14.2053 13.7129 15.4269 12.7595 16.5591 11.6566ZM6.79764 15.5929C7.12511 15.4838 7.30208 15.1298 7.19293 14.8023C7.08377 14.4749 6.72982 14.2979 6.40236 14.4071C4.33655 15.0957 3.33704 16.8124 2.85707 18.2523C2.61522 18.9779 2.49545 19.6588 2.4357 20.1568C2.40572 20.4067 2.39056 20.6128 2.38289 20.7585C2.37906 20.8315 2.37708 20.8894 2.37607 20.9303C2.37556 20.9507 2.3753 20.967 2.37516 20.9787L2.37502 20.9928L2.375 20.9973L2.375 20.9995C2.375 21.3447 2.65482 21.625 3 21.625V21C3 21.625 3.00114 21.625 3.00114 21.625L3.00272 21.625L3.0072 21.625L3.02134 21.6248C3.03303 21.6247 3.04924 21.6244 3.06969 21.6239C3.11058 21.6229 3.16853 21.6209 3.24144 21.6171C3.38715 21.6094 3.59334 21.5943 3.84322 21.5643C4.34115 21.5045 5.02208 21.3848 5.74764 21.1429C7.18755 20.6629 8.90433 19.6634 9.59293 17.5976C9.70208 17.2702 9.52511 16.9162 9.19764 16.8071C8.87018 16.6979 8.51623 16.8749 8.40707 17.2023C7.89567 18.7365 6.61245 19.537 5.35236 19.9571C4.72792 20.1652 4.13385 20.2704 3.69428 20.3232L3.67444 20.3255L3.6768 20.3057C3.72955 19.8661 3.83478 19.2721 4.04293 18.6476C4.46296 17.3875 5.26345 16.1043 6.79764 15.5929ZM3 21L2.375 20.9995C2.375 20.9995 2.375 21 3 21Z" fill="#E1E5EA"/>
</svg>
