<svg width="24" height="24" viewBox="0 0 24 24" fill="none" xmlns="http://www.w3.org/2000/svg">
<path d="M17.921 6.89788C17.8401 6.75467 17.7056 6.64945 17.5472 6.60538C17.3887 6.56131 17.2192 6.58199 17.076 6.66288C16.9328 6.74377 16.8276 6.87824 16.7835 7.03671C16.7394 7.19518 16.7601 7.36467 16.841 7.50788C18.226 9.95788 18.226 13.1699 16.841 15.6199C16.801 15.6908 16.7753 15.7689 16.7654 15.8497C16.7555 15.9306 16.7617 16.0126 16.7835 16.0911C16.8053 16.1695 16.8424 16.2429 16.8926 16.3071C16.9428 16.3712 17.0051 16.4248 17.076 16.4649C17.1469 16.5049 17.225 16.5306 17.3059 16.5405C17.3867 16.5504 17.4687 16.5442 17.5472 16.5224C17.6256 16.5006 17.699 16.4635 17.7632 16.4133C17.8273 16.3631 17.881 16.3008 17.921 16.2299C19.52 13.4019 19.52 9.72688 17.921 6.89788Z" fill="#E1E5EA"/>
<path d="M7.159 7.50888C7.19906 7.43797 7.22475 7.35986 7.23462 7.27902C7.24448 7.19817 7.23833 7.11618 7.21651 7.03771C7.19469 6.95925 7.15763 6.88585 7.10744 6.82171C7.05725 6.75756 6.99492 6.70394 6.924 6.66388C6.85309 6.62383 6.77498 6.59814 6.69414 6.58827C6.6133 6.5784 6.5313 6.58456 6.45283 6.60638C6.37437 6.6282 6.30097 6.66526 6.23683 6.71545C6.17269 6.76564 6.11906 6.82797 6.079 6.89888L6.08 6.89788C5.00541 8.79791 4.65208 11.0795 5.02063 13.2299C5.08468 13.6036 5.17053 13.9733 5.27816 14.3363C5.47339 14.9947 5.74033 15.6313 6.079 16.2299C6.11906 16.3008 6.17269 16.3631 6.23683 16.4133C6.30097 16.4635 6.37437 16.5006 6.45283 16.5224C6.5313 16.5442 6.6133 16.5504 6.69414 16.5405C6.77498 16.5306 6.85309 16.5049 6.924 16.4649C6.99492 16.4248 7.05725 16.3712 7.10744 16.3071C7.15763 16.2429 7.19469 16.1695 7.21651 16.0911C7.23833 16.0126 7.24448 15.9306 7.23462 15.8497C7.22475 15.7689 7.19906 15.6908 7.159 15.6199C5.774 13.1699 5.774 9.95788 7.159 7.50888Z" fill="#E1E5EA"/>
<path d="M9.097 9.73988C9.17922 9.59746 9.20149 9.42821 9.15892 9.26937C9.11635 9.11053 9.01243 8.9751 8.87 8.89288C8.72758 8.81067 8.55833 8.78839 8.39949 8.83096C8.24065 8.87353 8.10522 8.97746 8.023 9.11988L8.0246 9.12181L8.023 9.12088L8.02201 9.12188C7.60095 9.86744 7.3797 10.7091 7.3797 11.5654C7.3797 12.4216 7.60095 13.2633 8.02201 14.0089L8.023 14.0079C8.10522 14.1503 8.24065 14.2542 8.39949 14.2968C8.55833 14.3394 8.72758 14.3171 8.87 14.2349C9.01243 14.1527 9.11635 14.0172 9.15892 13.8584C9.20149 13.6996 9.17922 13.5303 9.097 13.3879V13.3889C8.78465 12.8317 8.62061 12.2036 8.62061 11.5649C8.62061 10.9261 8.78465 10.2981 9.097 9.74088L9.09526 9.73987L9.097 9.73988Z" fill="#E1E5EA"/>
<path fill-rule="evenodd" clip-rule="evenodd" d="M9.3 21.6199H14.7C17.011 21.6199 18.79 21.1619 19.976 19.9759C21.162 18.7899 21.62 17.0099 21.62 14.6999V9.29988C21.62 6.98888 21.162 5.20988 19.976 4.02388C18.79 2.83788 17.01 2.37988 14.7 2.37988H9.3C6.98901 2.37988 5.21 2.83788 4.024 4.02388C2.838 5.20988 2.38 6.98988 2.38 9.29988V14.6999C2.38 17.0109 2.838 18.7899 4.024 19.9759C5.21 21.1619 6.99001 21.6199 9.3 21.6199ZM19.1 19.0999C19.938 18.2599 20.38 16.8889 20.38 14.6999V9.29988C20.38 7.11088 19.938 5.73988 19.1 4.89988C18.26 4.06188 16.889 3.61988 14.7 3.61988H9.3C7.111 3.61988 5.74 4.06188 4.9 4.89988C4.062 5.73988 3.62 7.11088 3.62 9.29988V14.6999C3.62 16.8889 4.062 18.2599 4.9 19.0999C5.74 19.9379 7.111 20.3799 9.3 20.3799H11.3938C11.3847 20.3375 11.38 20.2939 11.38 20.2499V13.7786C10.5121 13.5132 9.88 12.7052 9.88 11.7509V11.7499C9.88 10.5799 10.83 9.62988 12 9.62988C13.17 9.62988 14.12 10.5809 14.12 11.7509C14.12 12.7052 13.488 13.5132 12.62 13.7786V20.2499C12.62 20.2939 12.6153 20.3375 12.6062 20.3799H14.7C16.889 20.3799 18.26 19.9379 19.1 19.0999ZM12.813 12.0876C12.8572 11.9809 12.88 11.8664 12.88 11.7509C12.88 11.5175 12.7873 11.2937 12.6223 11.1286C12.4572 10.9636 12.2334 10.8709 12 10.8709C11.7666 10.8709 11.5428 10.9636 11.3778 11.1286C11.2127 11.2937 11.12 11.5175 11.12 11.7509C11.12 11.8664 11.1428 11.9809 11.187 12.0876C11.2312 12.1944 11.296 12.2914 11.3778 12.3731C11.4595 12.4549 11.5565 12.5197 11.6632 12.5639C11.77 12.6081 11.8844 12.6309 12 12.6309C12.1156 12.6309 12.23 12.6081 12.3368 12.5639C12.4435 12.5197 12.5405 12.4549 12.6223 12.3731C12.704 12.2914 12.7688 12.1944 12.813 12.0876Z" fill="#E1E5EA"/>
<path d="M15.977 9.12088C15.8928 8.98281 15.7579 8.88313 15.6012 8.84311C15.4444 8.80308 15.2783 8.82589 15.1382 8.90666C14.998 8.98743 14.895 9.11976 14.8511 9.27543C14.8071 9.4311 14.8258 9.59777 14.903 9.73988L14.9046 9.73997L14.903 9.74088C15.2156 10.2982 15.3798 10.9264 15.3798 11.5654C15.3798 12.2044 15.2156 12.8326 14.903 13.3899V13.3889C14.8208 13.5313 14.7985 13.7006 14.8411 13.8594C14.8837 14.0182 14.9876 14.1537 15.13 14.2359C15.2724 14.3181 15.4417 14.3404 15.6005 14.2978C15.7594 14.2552 15.8948 14.1513 15.977 14.0089V14.0099C16.3982 13.2642 16.6196 12.4223 16.6196 11.5659C16.6196 10.7095 16.3982 9.86656 15.977 9.12088Z" fill="#E1E5EA"/>
</svg>
