<svg width="24" height="24" viewBox="0 0 24 24" fill="none" xmlns="http://www.w3.org/2000/svg">
<path fill-rule="evenodd" clip-rule="evenodd" d="M7.37578 0.775742C7.61009 0.541427 7.98999 0.541427 8.22431 0.775742L12.0427 4.59409L15.8184 0.818345C16.0527 0.58403 16.4326 0.58403 16.6669 0.818345C16.9012 1.05266 16.9012 1.43256 16.6669 1.66687L13.5338 4.80002H18.6C20.9196 4.80002 22.8 6.68042 22.8 9.00002V16.2C22.8 18.5196 20.9196 20.4 18.6 20.4H5.40004C3.08044 20.4 1.20004 18.5196 1.20004 16.2V9.00002C1.20004 6.68042 3.08045 4.80002 5.40004 4.80002H10.5515L7.37578 1.62427C7.14146 1.38996 7.14146 1.01006 7.37578 0.775742ZM5.40004 6.00002C3.74319 6.00002 2.40004 7.34317 2.40004 9.00002V16.2C2.40004 17.8569 3.74319 19.2 5.40004 19.2H18.6C20.2569 19.2 21.6 17.8569 21.6 16.2V9.00002C21.6 7.34316 20.2569 6.00002 18.6 6.00002H5.40004Z" fill="#E1E5EA"/>
<path d="M13.1488 9.45161C13.0139 9.09185 12.6129 8.90957 12.2531 9.04448C11.8934 9.17939 11.7111 9.58041 11.846 9.94017L13.9331 15.5058C14.0349 15.7773 14.2945 15.9572 14.5845 15.9572C14.8745 15.9572 15.1341 15.7773 15.2359 15.5058L17.323 9.94017C17.4579 9.58041 17.2756 9.17939 16.9159 9.04448C16.5561 8.90957 16.1551 9.09185 16.0202 9.45161L14.5845 13.2801L13.1488 9.45161Z" fill="#E1E5EA"/>
<path d="M7.3957 9.04982C7.01147 9.04982 6.7 9.3613 6.7 9.74552C6.7 9.93003 6.77329 10.107 6.90376 10.2375C7.03423 10.3679 7.21119 10.4412 7.3957 10.4412L8.09106 10.4412V15.2615C8.09106 15.6457 8.40253 15.9572 8.78676 15.9572C9.17098 15.9572 9.48246 15.6457 9.48246 15.2615V10.4412L10.1785 10.4412C10.5627 10.4412 10.8742 10.1297 10.8742 9.74552C10.8742 9.3613 10.5627 9.04982 10.1785 9.04982H7.3957Z" fill="#E1E5EA"/>
</svg>
