<svg width="24" height="24" viewBox="0 0 24 24" fill="none" xmlns="http://www.w3.org/2000/svg">
<path fill-rule="evenodd" clip-rule="evenodd" d="M5.61501 22.585V18.2H4.38501V23.2C4.38501 23.5397 4.66035 23.815 5.00001 23.815H19C19.3397 23.815 19.615 23.5397 19.615 23.2V18.2H18.385V22.585H5.61501Z" fill="white"/>
<path fill-rule="evenodd" clip-rule="evenodd" d="M2.38501 16C2.38501 15.6604 2.66035 15.385 3.00001 15.385H21C21.3397 15.385 21.615 15.6604 21.615 16V18C21.615 18.3397 21.3397 18.615 21 18.615H3.00001C2.66035 18.615 2.38501 18.3397 2.38501 18V16ZM3.61501 16.615V17.385H20.385V16.615H3.61501Z" fill="white"/>
<path fill-rule="evenodd" clip-rule="evenodd" d="M18.615 11L18.615 16L17.385 16L17.385 11L18.615 11Z" fill="white"/>
<path fill-rule="evenodd" clip-rule="evenodd" d="M16.385 9.00001C16.385 8.10807 17.1081 7.38501 18 7.38501C18.8919 7.38501 19.615 8.10807 19.615 9.00001V10C19.615 10.8919 18.8919 11.615 18 11.615C17.1081 11.615 16.385 10.8919 16.385 10V9.00001ZM18 8.61501C17.7874 8.61501 17.615 8.78738 17.615 9.00001V10C17.615 10.2126 17.7874 10.385 18 10.385C18.2126 10.385 18.385 10.2126 18.385 10V9.00001C18.385 8.78738 18.2126 8.61501 18 8.61501Z" fill="white"/>
<path fill-rule="evenodd" clip-rule="evenodd" d="M12.7 1.61501C11.2099 1.61501 10.015 2.80608 10.015 4.25927C10.015 4.57148 10.1248 4.90914 10.3291 5.2996C10.4867 5.60086 10.6758 5.89072 10.8806 6.20452C10.9468 6.30606 11.0147 6.4101 11.0837 6.51785C11.3494 6.93271 11.6321 7.40467 11.7786 7.9009C11.9323 8.42162 11.9435 8.99453 11.6408 9.56926C11.3194 10.1797 10.6606 10.4298 9.84988 10.4298C8.88619 10.4298 8.24964 10.6987 7.812 11.0713C7.36497 11.4519 7.07023 11.988 6.88265 12.6098C6.56237 13.6713 6.58995 14.8276 6.60816 15.5911C6.61182 15.7446 6.6151 15.8822 6.6151 16C6.6151 16.3397 6.33976 16.615 6.0001 16.615C5.66045 16.615 5.3851 16.3397 5.3851 16C5.3851 15.9155 5.38212 15.8058 5.37857 15.6755C5.35844 14.9362 5.32016 13.5302 5.70508 12.2545C5.93623 11.4883 6.33209 10.7158 7.01467 10.1347C7.70664 9.54563 8.63873 9.19982 9.84988 9.19982C10.1441 9.19982 10.3189 9.15488 10.4169 9.11006C10.5041 9.07014 10.5351 9.02914 10.5525 8.99615C10.6732 8.76699 10.6839 8.53716 10.5989 8.24918C10.5067 7.93671 10.3123 7.594 10.0479 7.1811C9.99256 7.09471 9.93369 7.00458 9.87293 6.91154C9.66148 6.58778 9.42704 6.22883 9.23919 5.86973C8.99302 5.39916 8.78496 4.85559 8.78496 4.25927C8.78496 2.11238 10.545 0.38501 12.7 0.38501C14.855 0.38501 16.6151 2.11238 16.6151 4.25927C16.6151 5.77896 15.7315 7.08932 14.4541 7.72372C14.1499 7.8748 13.7808 7.75066 13.6298 7.44645C13.4787 7.14225 13.6028 6.77317 13.907 6.62209C14.7878 6.18467 15.3851 5.2881 15.3851 4.25927C15.3851 2.80608 14.1902 1.61501 12.7 1.61501Z" fill="white"/>
</svg>
