<?xml version="1.0" standalone="no"?>
<!DOCTYPE svg PUBLIC "-//W3C//DTD SVG 20010904//EN"
 "http://www.w3.org/TR/2001/REC-SVG-20010904/DTD/svg10.dtd">
<svg version="1.0" xmlns="http://www.w3.org/2000/svg"
 width="980.000000pt" height="986.000000pt" viewBox="0 0 980.000000 986.000000"
 preserveAspectRatio="xMidYMid meet">

<g transform="translate(0.000000,986.000000) scale(0.100000,-0.100000)"
fill="#000000" stroke="none">
<path d="M4470 9844 c-374 -33 -711 -110 -1015 -232 -500 -201 -638 -262 -855
-377 -1378 -735 -2331 -2089 -2549 -3625 -39 -271 -45 -372 -45 -695 -1 -399
22 -638 95 -995 104 -512 321 -1073 579 -1500 45 -74 123 -209 172 -300 201
-368 366 -569 551 -672 33 -18 102 -72 152 -119 560 -524 1254 -918 1985
-1127 426 -122 793 -178 1240 -189 1205 -30 2360 376 3284 1155 207 175 497
474 678 702 1108 1392 1366 3306 668 4955 -23 55 -82 180 -130 277 -704 1409
-2070 2409 -3613 2643 -89 14 -211 34 -272 45 -218 39 -357 52 -620 55 -143 1
-280 1 -305 -1z m734 -1819 c579 -68 1007 -315 1211 -698 58 -109 110 -269
129 -398 75 -515 87 -1101 30 -1469 -8 -52 -17 -102 -20 -111 -3 -13 5 -18 37
-23 136 -22 200 -123 200 -316 0 -126 -22 -238 -93 -465 -61 -195 -130 -342
-193 -413 -68 -76 -119 -97 -186 -79 l-26 7 -6 -138 c-17 -385 -126 -652 -299
-734 l-48 -23 5 -55 c3 -30 10 -127 16 -215 5 -87 12 -161 14 -163 2 -2 84
-16 182 -31 162 -25 178 -29 175 -47 -1 -10 -5 -81 -9 -156 -4 -97 -2 -145 6
-166 16 -38 199 -148 431 -261 237 -114 320 -143 760 -266 212 -59 490 -147
490 -154 0 -10 -191 -177 -319 -279 -131 -105 -405 -291 -556 -378 -455 -261
-987 -449 -1503 -533 -278 -46 -405 -55 -732 -55 -328 0 -471 11 -735 55 -804
135 -1528 469 -2162 998 -97 80 -116 101 -94 101 12 0 385 152 626 255 244
104 390 176 580 286 88 50 231 127 317 171 91 46 159 86 162 96 11 38 26 178
26 248 l0 74 169 0 c145 0 170 2 175 16 20 53 -8 434 -33 442 -39 13 -139 93
-181 145 -120 148 -186 344 -211 623 l-12 131 -57 0 c-75 0 -134 32 -177 97
-44 65 -62 129 -74 266 -6 68 -27 184 -52 285 -34 138 -41 188 -42 265 0 126
22 176 117 266 l70 65 -91 247 c-97 263 -101 278 -128 502 -26 212 -25 711 0
865 60 352 191 561 390 620 58 17 210 20 276 4 24 -5 45 -8 47 -6 3 2 -2 17
-11 33 -19 37 -19 107 0 143 25 49 124 130 209 171 168 81 354 127 661 163 87
11 423 5 539 -8z"/>
</g>
</svg>
