<svg width="597" height="72" viewBox="0 0 597 72" fill="none" xmlns="http://www.w3.org/2000/svg">
<rect x="1" y="1" width="595" height="70" rx="11" fill="#FCFCFC"/>
<rect x="1" y="1" width="595" height="70" rx="11" stroke="#EFEFEF" stroke-width="2"/>
<path d="M18.8208 24.148C16.236 22.9551 13.4754 25.426 14.3756 28.1266L15.7613 32.2362C15.8984 32.6428 16.2797 32.9167 16.7089 32.9167H26.0834C26.6817 32.9167 27.1667 33.4017 27.1667 34C27.1667 34.5983 26.6817 35.0833 26.0834 35.0833H16.7089C16.2797 35.0833 15.8984 35.3572 15.7613 35.7638L14.3756 39.8734C13.4754 42.574 16.236 45.0449 18.8208 43.852L33.7732 36.9509C36.2906 35.789 36.2906 32.2111 33.7732 31.0492L18.8208 24.148Z" fill="#6F767E"/>
<path d="M55.7713 31H52.4759L57.4972 16.4545H61.4602L66.4744 31H63.179L59.5355 19.7784H59.4219L55.7713 31ZM55.5653 25.2827H63.3494V27.6832H55.5653V25.2827ZM70.9939 16.4545V31H67.9683V16.4545H70.9939ZM76.2431 16.4545V31H73.2175V16.4545H76.2431Z" fill="#1A1D1F"/>
<path d="M54.6676 52L52.2472 43.2727H53.6321L55.3324 50.0312H55.4134L57.1818 43.2727H58.554L60.3224 50.0355H60.4034L62.0994 43.2727H63.4886L61.0639 52H59.7386L57.902 45.4631H57.8338L55.9972 52H54.6676ZM65.6812 48.1136V52H64.407V43.2727H65.6641V46.5199H65.7451C65.8985 46.1676 66.1329 45.8878 66.4482 45.6804C66.7635 45.473 67.1755 45.3693 67.684 45.3693C68.1329 45.3693 68.5249 45.4616 68.8601 45.6463C69.1982 45.831 69.4596 46.1065 69.6442 46.473C69.8317 46.8366 69.9255 47.2912 69.9255 47.8366V52H68.6513V47.9901C68.6513 47.5099 68.5277 47.1378 68.2806 46.8736C68.0334 46.6065 67.6897 46.473 67.2493 46.473C66.9482 46.473 66.6783 46.5369 66.4397 46.6648C66.2039 46.7926 66.0178 46.9801 65.8814 47.2273C65.7479 47.4716 65.6812 47.767 65.6812 48.1136ZM74.2668 52.1321C73.6219 52.1321 73.0665 51.9943 72.6006 51.7188C72.1375 51.4403 71.7796 51.0497 71.5267 50.5469C71.2767 50.0412 71.1517 49.4489 71.1517 48.7699C71.1517 48.0994 71.2767 47.5085 71.5267 46.9972C71.7796 46.4858 72.1318 46.0866 72.5835 45.7997C73.0381 45.5128 73.5693 45.3693 74.1773 45.3693C74.5466 45.3693 74.9046 45.4304 75.2512 45.5526C75.5977 45.6747 75.9088 45.8665 76.1844 46.1278C76.46 46.3892 76.6773 46.7287 76.8364 47.1463C76.9955 47.5611 77.075 48.0653 77.075 48.6591V49.1108H71.8719V48.1562H75.8264C75.8264 47.821 75.7583 47.5241 75.6219 47.2656C75.4855 47.0043 75.2938 46.7983 75.0466 46.6477C74.8023 46.4972 74.5154 46.4219 74.1858 46.4219C73.8279 46.4219 73.5154 46.5099 73.2483 46.6861C72.9841 46.8594 72.7796 47.0866 72.6347 47.3679C72.4926 47.6463 72.4216 47.9489 72.4216 48.2756V49.0213C72.4216 49.4588 72.4983 49.831 72.6517 50.1378C72.808 50.4446 73.0253 50.679 73.3037 50.8409C73.5821 51 73.9074 51.0795 74.2796 51.0795C74.521 51.0795 74.7412 51.0455 74.9401 50.9773C75.1389 50.9062 75.3108 50.8011 75.4557 50.6619C75.6006 50.5227 75.7114 50.3509 75.7881 50.1463L76.994 50.3636C76.8975 50.7187 76.7242 51.0298 76.4742 51.2969C76.227 51.5611 75.9159 51.767 75.5409 51.9148C75.1688 52.0597 74.744 52.1321 74.2668 52.1321ZM79.5829 48.1136V52H78.3087V45.4545H79.5317V46.5199H79.6127C79.7633 46.1733 79.9991 45.8949 80.3201 45.6847C80.6439 45.4744 81.0516 45.3693 81.5431 45.3693C81.9891 45.3693 82.3797 45.4631 82.715 45.6506C83.0502 45.8352 83.3101 46.1108 83.4948 46.4773C83.6795 46.8437 83.7718 47.2969 83.7718 47.8366V52H82.4976V47.9901C82.4976 47.5156 82.3741 47.1449 82.1269 46.8778C81.8797 46.608 81.5403 46.473 81.1084 46.473C80.813 46.473 80.5502 46.5369 80.3201 46.6648C80.0928 46.7926 79.9124 46.9801 79.7789 47.2273C79.6482 47.4716 79.5829 47.767 79.5829 48.1136ZM90.7467 52.1278C90.2183 52.1278 89.7467 51.9929 89.3319 51.723C88.92 51.4503 88.5961 51.0625 88.3603 50.5597C88.1273 50.054 88.0109 49.4474 88.0109 48.7401C88.0109 48.0327 88.1288 47.4276 88.3646 46.9247C88.6032 46.4219 88.9299 46.0369 89.3447 45.7699C89.7594 45.5028 90.2296 45.3693 90.7552 45.3693C91.1614 45.3693 91.4881 45.4375 91.7353 45.5739C91.9853 45.7074 92.1785 45.8636 92.3148 46.0426C92.454 46.2216 92.562 46.3793 92.6387 46.5156H92.7154V43.2727H93.9896V52H92.7452V50.9815H92.6387C92.562 51.1207 92.4512 51.2798 92.3063 51.4588C92.1643 51.6378 91.9683 51.794 91.7183 51.9276C91.4683 52.0611 91.1444 52.1278 90.7467 52.1278ZM91.0279 51.0412C91.3944 51.0412 91.704 50.9446 91.9569 50.7514C92.2126 50.5554 92.4058 50.2841 92.5364 49.9375C92.67 49.5909 92.7367 49.1875 92.7367 48.7273C92.7367 48.2727 92.6714 47.875 92.5407 47.5341C92.41 47.1932 92.2183 46.9276 91.9654 46.7372C91.7126 46.5469 91.4001 46.4517 91.0279 46.4517C90.6444 46.4517 90.3248 46.5511 90.0691 46.75C89.8134 46.9489 89.6202 47.2202 89.4896 47.5639C89.3617 47.9077 89.2978 48.2955 89.2978 48.7273C89.2978 49.1648 89.3631 49.5582 89.4938 49.9077C89.6245 50.2571 89.8177 50.5341 90.0734 50.7386C90.3319 50.9403 90.6501 51.0412 91.0279 51.0412ZM98.3852 52.1321C97.7716 52.1321 97.236 51.9915 96.7787 51.7102C96.3213 51.429 95.9662 51.0355 95.7133 50.5298C95.4605 50.0241 95.3341 49.4332 95.3341 48.7571C95.3341 48.0781 95.4605 47.4844 95.7133 46.9759C95.9662 46.4673 96.3213 46.0724 96.7787 45.7912C97.236 45.5099 97.7716 45.3693 98.3852 45.3693C98.9988 45.3693 99.5343 45.5099 99.9917 45.7912C100.449 46.0724 100.804 46.4673 101.057 46.9759C101.31 47.4844 101.436 48.0781 101.436 48.7571C101.436 49.4332 101.31 50.0241 101.057 50.5298C100.804 51.0355 100.449 51.429 99.9917 51.7102C99.5343 51.9915 98.9988 52.1321 98.3852 52.1321ZM98.3895 51.0625C98.7872 51.0625 99.1167 50.9574 99.3781 50.7472C99.6395 50.5369 99.8326 50.2571 99.9576 49.9077C100.085 49.5582 100.149 49.1733 100.149 48.7528C100.149 48.3352 100.085 47.9517 99.9576 47.6023C99.8326 47.25 99.6395 46.9673 99.3781 46.7543C99.1167 46.5412 98.7872 46.4347 98.3895 46.4347C97.9889 46.4347 97.6565 46.5412 97.3923 46.7543C97.1309 46.9673 96.9363 47.25 96.8085 47.6023C96.6835 47.9517 96.621 48.3352 96.621 48.7528C96.621 49.1733 96.6835 49.5582 96.8085 49.9077C96.9363 50.2571 97.1309 50.5369 97.3923 50.7472C97.6565 50.9574 97.9889 51.0625 98.3895 51.0625ZM106.48 54.4545C106.289 54.4545 106.116 54.4389 105.96 54.4077C105.804 54.3793 105.687 54.348 105.61 54.3139L105.917 53.2699C106.15 53.3324 106.358 53.3594 106.539 53.3509C106.721 53.3423 106.882 53.2741 107.021 53.1463C107.163 53.0185 107.288 52.8097 107.396 52.5199L107.554 52.0852L105.159 45.4545H106.522L108.18 50.5341H108.248L109.906 45.4545H111.274L108.576 52.8736C108.451 53.2145 108.292 53.5028 108.099 53.7386C107.906 53.9773 107.676 54.1563 107.409 54.2756C107.142 54.3949 106.832 54.4545 106.48 54.4545ZM114.826 52.1321C114.212 52.1321 113.677 51.9915 113.219 51.7102C112.762 51.429 112.407 51.0355 112.154 50.5298C111.901 50.0241 111.775 49.4332 111.775 48.7571C111.775 48.0781 111.901 47.4844 112.154 46.9759C112.407 46.4673 112.762 46.0724 113.219 45.7912C113.677 45.5099 114.212 45.3693 114.826 45.3693C115.439 45.3693 115.975 45.5099 116.432 45.7912C116.89 46.0724 117.245 46.4673 117.498 46.9759C117.75 47.4844 117.877 48.0781 117.877 48.7571C117.877 49.4332 117.75 50.0241 117.498 50.5298C117.245 51.0355 116.89 51.429 116.432 51.7102C115.975 51.9915 115.439 52.1321 114.826 52.1321ZM114.83 51.0625C115.228 51.0625 115.557 50.9574 115.819 50.7472C116.08 50.5369 116.273 50.2571 116.398 49.9077C116.526 49.5582 116.59 49.1733 116.59 48.7528C116.59 48.3352 116.526 47.9517 116.398 47.6023C116.273 47.25 116.08 46.9673 115.819 46.7543C115.557 46.5412 115.228 46.4347 114.83 46.4347C114.429 46.4347 114.097 46.5412 113.833 46.7543C113.571 46.9673 113.377 47.25 113.249 47.6023C113.124 47.9517 113.061 48.3352 113.061 48.7528C113.061 49.1733 113.124 49.5582 113.249 49.9077C113.377 50.2571 113.571 50.5369 113.833 50.7472C114.097 50.9574 114.429 51.0625 114.83 51.0625ZM123.265 49.2855V45.4545H124.544V52H123.291V50.8665H123.223C123.072 51.2159 122.831 51.5071 122.498 51.7401C122.169 51.9702 121.758 52.0852 121.267 52.0852C120.846 52.0852 120.474 51.9929 120.15 51.8082C119.829 51.6207 119.576 51.3438 119.392 50.9773C119.21 50.6108 119.119 50.1577 119.119 49.6179V45.4545H120.393V49.4645C120.393 49.9105 120.517 50.2656 120.764 50.5298C121.011 50.794 121.332 50.9261 121.727 50.9261C121.966 50.9261 122.203 50.8665 122.439 50.7472C122.677 50.6278 122.875 50.4474 123.031 50.206C123.19 49.9645 123.268 49.6577 123.265 49.2855ZM129.072 52V45.4545H130.303V46.4943H130.371C130.491 46.142 130.701 45.8651 131.002 45.6634C131.306 45.4588 131.65 45.3565 132.033 45.3565C132.113 45.3565 132.206 45.3594 132.314 45.3651C132.425 45.3707 132.512 45.3778 132.574 45.3864V46.6051C132.523 46.5909 132.432 46.5753 132.302 46.5582C132.171 46.5384 132.04 46.5284 131.91 46.5284C131.608 46.5284 131.34 46.5923 131.104 46.7202C130.871 46.8452 130.687 47.0199 130.55 47.2443C130.414 47.4659 130.346 47.7187 130.346 48.0028V52H129.072ZM136.084 52.1321C135.439 52.1321 134.883 51.9943 134.417 51.7188C133.954 51.4403 133.596 51.0497 133.344 50.5469C133.094 50.0412 132.969 49.4489 132.969 48.7699C132.969 48.0994 133.094 47.5085 133.344 46.9972C133.596 46.4858 133.949 46.0866 134.4 45.7997C134.855 45.5128 135.386 45.3693 135.994 45.3693C136.363 45.3693 136.721 45.4304 137.068 45.5526C137.415 45.6747 137.726 45.8665 138.001 46.1278C138.277 46.3892 138.494 46.7287 138.653 47.1463C138.812 47.5611 138.892 48.0653 138.892 48.6591V49.1108H133.689V48.1562H137.643C137.643 47.821 137.575 47.5241 137.439 47.2656C137.302 47.0043 137.111 46.7983 136.863 46.6477C136.619 46.4972 136.332 46.4219 136.003 46.4219C135.645 46.4219 135.332 46.5099 135.065 46.6861C134.801 46.8594 134.596 47.0866 134.452 47.3679C134.31 47.6463 134.238 47.9489 134.238 48.2756V49.0213C134.238 49.4588 134.315 49.831 134.469 50.1378C134.625 50.4446 134.842 50.679 135.121 50.8409C135.399 51 135.724 51.0795 136.096 51.0795C136.338 51.0795 136.558 51.0455 136.757 50.9773C136.956 50.9062 137.128 50.8011 137.273 50.6619C137.417 50.5227 137.528 50.3509 137.605 50.1463L138.811 50.3636C138.714 50.7187 138.541 51.0298 138.291 51.2969C138.044 51.5611 137.733 51.767 137.358 51.9148C136.986 52.0597 136.561 52.1321 136.084 52.1321ZM141.4 43.2727V52H140.126V43.2727H141.4ZM145.755 52.1321C145.11 52.1321 144.555 51.9943 144.089 51.7188C143.626 51.4403 143.268 51.0497 143.015 50.5469C142.765 50.0412 142.64 49.4489 142.64 48.7699C142.64 48.0994 142.765 47.5085 143.015 46.9972C143.268 46.4858 143.62 46.0866 144.072 45.7997C144.526 45.5128 145.057 45.3693 145.665 45.3693C146.035 45.3693 146.393 45.4304 146.739 45.5526C147.086 45.6747 147.397 45.8665 147.673 46.1278C147.948 46.3892 148.165 46.7287 148.325 47.1463C148.484 47.5611 148.563 48.0653 148.563 48.6591V49.1108H143.36V48.1562H147.315C147.315 47.821 147.246 47.5241 147.11 47.2656C146.974 47.0043 146.782 46.7983 146.535 46.6477C146.29 46.4972 146.003 46.4219 145.674 46.4219C145.316 46.4219 145.003 46.5099 144.736 46.6861C144.472 46.8594 144.268 47.0866 144.123 47.3679C143.981 47.6463 143.91 47.9489 143.91 48.2756V49.0213C143.91 49.4588 143.986 49.831 144.14 50.1378C144.296 50.4446 144.513 50.679 144.792 50.8409C145.07 51 145.396 51.0795 145.768 51.0795C146.009 51.0795 146.229 51.0455 146.428 50.9773C146.627 50.9062 146.799 50.8011 146.944 50.6619C147.089 50.5227 147.2 50.3509 147.276 50.1463L148.482 50.3636C148.386 50.7187 148.212 51.0298 147.962 51.2969C147.715 51.5611 147.404 51.767 147.029 51.9148C146.657 52.0597 146.232 52.1321 145.755 52.1321ZM151.702 52.1449C151.287 52.1449 150.912 52.0682 150.577 51.9148C150.241 51.7585 149.976 51.5327 149.78 51.2372C149.587 50.9418 149.49 50.5795 149.49 50.1506C149.49 49.7812 149.561 49.4773 149.703 49.2386C149.845 49 150.037 48.8111 150.278 48.6719C150.52 48.5327 150.79 48.4276 151.088 48.3565C151.386 48.2855 151.69 48.2315 152 48.1946C152.392 48.1491 152.71 48.1122 152.955 48.0838C153.199 48.0526 153.376 48.0028 153.487 47.9347C153.598 47.8665 153.653 47.7557 153.653 47.6023V47.5724C153.653 47.2003 153.548 46.9119 153.338 46.7074C153.131 46.5028 152.821 46.4006 152.409 46.4006C151.98 46.4006 151.642 46.4957 151.395 46.6861C151.151 46.8736 150.982 47.0824 150.888 47.3125L149.69 47.0398C149.832 46.642 150.04 46.321 150.312 46.0767C150.588 45.8295 150.905 45.6506 151.263 45.5398C151.621 45.4261 151.997 45.3693 152.392 45.3693C152.653 45.3693 152.93 45.4006 153.223 45.4631C153.518 45.5227 153.794 45.6335 154.05 45.7955C154.308 45.9574 154.52 46.1889 154.685 46.4901C154.849 46.7884 154.932 47.1761 154.932 47.6534V52H153.687V51.1051H153.636C153.554 51.2699 153.43 51.4318 153.266 51.5909C153.101 51.75 152.889 51.8821 152.631 51.9872C152.372 52.0923 152.062 52.1449 151.702 52.1449ZM151.979 51.1222C152.331 51.1222 152.632 51.0526 152.882 50.9134C153.135 50.7741 153.327 50.5923 153.457 50.3679C153.591 50.1406 153.658 49.8977 153.658 49.6392V48.7955C153.612 48.8409 153.524 48.8835 153.393 48.9233C153.266 48.9602 153.119 48.9929 152.955 49.0213C152.79 49.0469 152.629 49.071 152.473 49.0938C152.317 49.1136 152.186 49.1307 152.081 49.1449C151.834 49.1761 151.608 49.2287 151.403 49.3026C151.202 49.3764 151.04 49.483 150.918 49.6222C150.798 49.7585 150.739 49.9403 150.739 50.1676C150.739 50.483 150.855 50.7216 151.088 50.8835C151.321 51.0426 151.618 51.1222 151.979 51.1222ZM161.354 47.0526L160.199 47.2571C160.151 47.1094 160.074 46.9687 159.969 46.8352C159.866 46.7017 159.727 46.5923 159.551 46.5071C159.375 46.4219 159.155 46.3793 158.891 46.3793C158.53 46.3793 158.229 46.4602 157.987 46.6222C157.746 46.7812 157.625 46.9872 157.625 47.2401C157.625 47.4588 157.706 47.6349 157.868 47.7685C158.03 47.902 158.291 48.0114 158.652 48.0966L159.692 48.3352C160.294 48.4744 160.743 48.6889 161.038 48.9787C161.334 49.2685 161.482 49.6449 161.482 50.108C161.482 50.5 161.368 50.8494 161.141 51.1562C160.916 51.4602 160.602 51.6989 160.199 51.8722C159.798 52.0455 159.334 52.1321 158.805 52.1321C158.072 52.1321 157.474 51.9759 157.011 51.6634C156.548 51.348 156.264 50.9006 156.159 50.321L157.391 50.1335C157.467 50.4545 157.625 50.6974 157.864 50.8622C158.102 51.0241 158.413 51.1051 158.797 51.1051C159.215 51.1051 159.548 51.0185 159.798 50.8452C160.048 50.669 160.173 50.4545 160.173 50.2017C160.173 49.9972 160.097 49.8253 159.943 49.6861C159.793 49.5469 159.561 49.4418 159.249 49.3707L158.141 49.1278C157.53 48.9886 157.078 48.767 156.786 48.4631C156.496 48.1591 156.351 47.7741 156.351 47.3082C156.351 46.9219 156.459 46.5838 156.675 46.294C156.891 46.0043 157.189 45.7784 157.57 45.6165C157.95 45.4517 158.386 45.3693 158.878 45.3693C159.585 45.3693 160.142 45.5227 160.548 45.8295C160.955 46.1335 161.223 46.5412 161.354 47.0526ZM165.523 52.1321C164.879 52.1321 164.323 51.9943 163.857 51.7188C163.394 51.4403 163.036 51.0497 162.783 50.5469C162.533 50.0412 162.408 49.4489 162.408 48.7699C162.408 48.0994 162.533 47.5085 162.783 46.9972C163.036 46.4858 163.389 46.0866 163.84 45.7997C164.295 45.5128 164.826 45.3693 165.434 45.3693C165.803 45.3693 166.161 45.4304 166.508 45.5526C166.854 45.6747 167.166 45.8665 167.441 46.1278C167.717 46.3892 167.934 46.7287 168.093 47.1463C168.252 47.5611 168.332 48.0653 168.332 48.6591V49.1108H163.129V48.1562H167.083C167.083 47.821 167.015 47.5241 166.879 47.2656C166.742 47.0043 166.55 46.7983 166.303 46.6477C166.059 46.4972 165.772 46.4219 165.443 46.4219C165.085 46.4219 164.772 46.5099 164.505 46.6861C164.241 46.8594 164.036 47.0866 163.891 47.3679C163.749 47.6463 163.678 47.9489 163.678 48.2756V49.0213C163.678 49.4588 163.755 49.831 163.908 50.1378C164.065 50.4446 164.282 50.679 164.56 50.8409C164.839 51 165.164 51.0795 165.536 51.0795C165.778 51.0795 165.998 51.0455 166.197 50.9773C166.396 50.9062 166.568 50.8011 166.712 50.6619C166.857 50.5227 166.968 50.3509 167.045 50.1463L168.251 50.3636C168.154 50.7187 167.981 51.0298 167.731 51.2969C167.484 51.5611 167.173 51.767 166.798 51.9148C166.425 52.0597 166.001 52.1321 165.523 52.1321Z" fill="#6F767E"/>
<path d="M567 33L573 39L579 33" stroke="#6F767E" stroke-width="2" stroke-linecap="round" stroke-linejoin="round"/>
</svg>
