<svg width="24" height="24" viewBox="0 0 24 24" fill="none" xmlns="http://www.w3.org/2000/svg">
<path fill-rule="evenodd" clip-rule="evenodd" d="M12 18C15.3137 18 18 15.3137 18 12C18 8.68629 15.3137 6 12 6C8.68629 6 6 8.68629 6 12C6 15.3137 8.68629 18 12 18Z" fill="#1A1D1F"/>
<path fill-rule="evenodd" clip-rule="evenodd" d="M11.9951 1.5C12.5474 1.5 12.9951 1.94772 12.9951 2.5V3.5C12.9951 4.05228 12.5474 4.5 11.9951 4.5C11.4428 4.5 10.9951 4.05228 10.9951 3.5V2.5C10.9951 1.94772 11.4428 1.5 11.9951 1.5Z" fill="#1A1D1F"/>
<path fill-rule="evenodd" clip-rule="evenodd" d="M11.9951 19.5C12.5474 19.5 12.9951 19.9477 12.9951 20.5V21.4968C12.9951 22.0491 12.5474 22.4968 11.9951 22.4968C11.4428 22.4968 10.9951 22.0491 10.9951 21.4968V20.5C10.9951 19.9477 11.4428 19.5 11.9951 19.5Z" fill="#1A1D1F"/>
<path fill-rule="evenodd" clip-rule="evenodd" d="M1.49673 11.9984C1.49673 11.4461 1.94445 10.9984 2.49673 10.9984H3.49673C4.04902 10.9984 4.49673 11.4461 4.49673 11.9984C4.49673 12.5507 4.04902 12.9984 3.49673 12.9984H2.49673C1.94445 12.9984 1.49673 12.5507 1.49673 11.9984Z" fill="#1A1D1F"/>
<path fill-rule="evenodd" clip-rule="evenodd" d="M19.4967 11.9984C19.4967 11.4461 19.9445 10.9984 20.4967 10.9984H21.4935C22.0458 10.9984 22.4935 11.4461 22.4935 11.9984C22.4935 12.5507 22.0458 12.9984 21.4935 12.9984H20.4967C19.9445 12.9984 19.4967 12.5507 19.4967 11.9984Z" fill="#1A1D1F"/>
<path fill-rule="evenodd" clip-rule="evenodd" d="M4.57174 19.4219C4.18121 19.0313 4.18121 18.3982 4.57174 18.0077L5.27885 17.3005C5.66937 16.91 6.30253 16.91 6.69306 17.3005C7.08358 17.6911 7.08358 18.3242 6.69306 18.7148L5.98595 19.4219C5.59543 19.8124 4.96226 19.8124 4.57174 19.4219Z" fill="#1A1D1F"/>
<path fill-rule="evenodd" clip-rule="evenodd" d="M17.2997 6.69394C16.9091 6.30342 16.9091 5.67025 17.2997 5.27973L18.0045 4.5749C18.395 4.18438 19.0282 4.18438 19.4187 4.5749C19.8092 4.96543 19.8092 5.59859 19.4187 5.98911L18.7139 6.69394C18.3234 7.08447 17.6902 7.08447 17.2997 6.69394Z" fill="#1A1D1F"/>
<path fill-rule="evenodd" clip-rule="evenodd" d="M4.57174 4.5749C4.96226 4.18438 5.59543 4.18438 5.98595 4.5749L6.69306 5.28201C7.08358 5.67253 7.08358 6.3057 6.69306 6.69622C6.30253 7.08675 5.66937 7.08675 5.27885 6.69622L4.57174 5.98911C4.18121 5.59859 4.18121 4.96543 4.57174 4.5749Z" fill="#1A1D1F"/>
<path fill-rule="evenodd" clip-rule="evenodd" d="M17.2997 17.3028C17.6902 16.9123 18.3234 16.9123 18.7139 17.3028L19.4187 18.0077C19.8092 18.3982 19.8092 19.0313 19.4187 19.4219C19.0282 19.8124 18.395 19.8124 18.0045 19.4219L17.2997 18.717C16.9091 18.3265 16.9091 17.6933 17.2997 17.3028Z" fill="#1A1D1F"/>
</svg>
